<svg width="19" height="14" viewBox="0 0 19 14" fill="none" xmlns="http://www.w3.org/2000/svg">
<path d="M14.3735 13.6485C13.8677 14.1246 13.0765 14.1176 12.5791 13.6328C12.0504 13.1174 12.0579 12.2654 12.5955 11.7594L12.9899 11.3882C14.1874 10.2612 13.3898 8.25 11.7454 8.25H1.43752C0.747166 8.25 0.187523 7.69036 0.187523 7C0.187523 6.30964 0.747167 5.75 1.43752 5.75H11.7454C13.3898 5.75 14.1874 3.73884 12.9899 2.61181L12.5955 2.24062C12.0579 1.73463 12.0504 0.882578 12.5791 0.36724C13.0765 -0.117646 13.8677 -0.12458 14.3735 0.351513L17.2467 3.05574C19.519 5.19435 19.519 8.80565 17.2467 10.9443L14.3735 13.6485Z" fill="#08010E"/>
</svg>
