<svg width="45" height="40" viewBox="0 0 45 40" fill="none" xmlns="http://www.w3.org/2000/svg">
<path d="M35.625 0H9.375C6.88951 0.00288701 4.50667 0.961604 2.74916 2.66585C0.991654 4.37011 0.00297723 6.68074 0 9.09091L0 30.9091C0.00297723 33.3193 0.991654 35.6299 2.74916 37.3341C4.50667 39.0384 6.88951 39.9971 9.375 40H35.625C38.1105 39.9971 40.4933 39.0384 42.2508 37.3341C44.0083 35.6299 44.997 33.3193 45 30.9091V9.09091C44.997 6.68074 44.0083 4.37011 42.2508 2.66585C40.4933 0.961604 38.1105 0.00288701 35.625 0ZM9.375 3.63636H35.625C36.7477 3.63851 37.8441 3.96639 38.773 4.57783C39.702 5.18926 40.421 6.05627 40.8375 7.06727L26.4788 20.9927C25.4221 22.0133 23.9914 22.5863 22.5 22.5863C21.0086 22.5863 19.5779 22.0133 18.5212 20.9927L4.1625 7.06727C4.57903 6.05627 5.29803 5.18926 6.22696 4.57783C7.1559 3.96639 8.25228 3.63851 9.375 3.63636ZM35.625 36.3636H9.375C7.88316 36.3636 6.45242 35.789 5.39752 34.766C4.34263 33.7431 3.75 32.3557 3.75 30.9091V11.8182L15.87 23.5636C17.6299 25.2659 20.0142 26.2219 22.5 26.2219C24.9858 26.2219 27.3701 25.2659 29.13 23.5636L41.25 11.8182V30.9091C41.25 32.3557 40.6574 33.7431 39.6025 34.766C38.5476 35.789 37.1168 36.3636 35.625 36.3636Z" fill="#3B1058"/>
</svg>
